#!OML:ASF F:\VICON\USERDATA\INSTALL\rory3\rory3.ASF
:FULLY-SPECIFIED
:DEGREES
2327
root -3.93303 17.601 1.2538 -0.0120036 8.39336 1.23125
lowerback 5.6796 -0.244742 -1.69942
upperback 0.807635 -0.402534 1.03291
thorax -2.33322 -0.182198 2.04816
lowerneck -28.5126 -3.57942 -10.9171
upperneck 23.1556 -2.10587 6.11817
head 12.6045 -1.06728 3.77465
rclavicle -7.57867e-015 -1.98785e-015
rhumerus -46.5075 -33.7925 -0.0580812
rradius 36.5278
rwrist 9.07557
rhand -32.7293 -2.52934
rfingers 7.12502
rthumb -5.95289 -32.4257
lclavicle -7.57867e-015 -1.98785e-015
lhumerus -34.3646 29.2645 7.70314
lradius 34.4178
lwrist 5.67152
lhand -20.3484 20.1946
lfingers 7.12502
lthumb 6.00348 50.0895
rfemur -10.4224 -5.30009 15.6331
rtibia 35.4416
rfoot -21.9477 -3.44501
rtoes 9.48086
lfemur -8.91088 -4.48701 -13.1736
ltibia 26.8851
lfoot -13.8655 0.86568
ltoes -23.1986
2328
root -3.9014 17.5998 1.25406 -0.201369 8.35765 1.23813
lowerback 5.97029 -0.268534 -1.75346
upperback 0.747159 -0.441957 1.02734
thorax -2.55585 -0.198283 2.07888
lowerneck -28.399 -3.52475 -10.9255
upperneck 23.2521 -2.05414 6.1603
head 12.617 -1.04277 3.80473
rclavicle 2.86747e-014 -4.77083e-015
rhumerus -45.6368 -33.6434 0.408498
rradius 36.778
rwrist 9.18206
rhand -32.7428 -2.7146
rfingers 7.12502
rthumb -5.96585 -32.6106
lclavicle 2.86747e-014 -4.77083e-015
lhumerus -33.6537 28.9626 7.02348
lradius 34.4712
lwrist 5.53177
lhand -20.327 20.0295
lfingers 7.12502
lthumb 6.02409 49.9239
rfemur -10.1826 -5.20509 15.5166
rtibia 35.4011
rfoot -21.9828 -3.48836
rtoes 9.83086
lfemur -8.6541 -4.36469 -13.302
ltibia 26.8467
lfoot -13.9011 0.79245
ltoes -23.2062
2329
root -3.86725 17.6013 1.2531 -0.261681 8.28028 1.33593
lowerback 6.14382 -0.301216 -1.88036
upperback 0.647548 -0.49785 0.992811
thorax -2.75217 -0.221735 2.12161
lowerneck -28.1437 -3.46136 -10.8747
upperneck 23.313 -2.01761 6.15219
head 12.589 -1.02734 3.80039
rclavicle 5.71506e-015 0
rhumerus -44.5991 -33.4615 0.697077
rradius 37.0088
rwrist 9.28138
rhand -32.7036 -2.62521
rfingers 7.12502
rthumb -5.92808 -32.5223
lclavicle 5.71506e-015 0
lhumerus -32.9586 28.4337 6.48141
lradius 34.6865
lwrist 5.83428
lhand -20.4367 20.2098
lfingers 7.12502
lthumb 5.91826 50.1071
rfemur -10.0715 -5.03161 15.3159
rtibia 35.3481
rfoot -21.9383 -3.73955
rtoes 9.15141
lfemur -8.53988 -4.05936 -13.5352
ltibia 26.844
lfoot -13.9486 0.628926
ltoes -23.4395
2330
root -3.83261 17.6053 1.25454 -0.310487 8.09245 1.36232
lowerback 6.14187 -0.289056 -1.95534
upperback 0.61199 -0.486925 0.991623
thorax -2.78773 -0.214711 2.16192
lowerneck -27.9816 -3.38193 -10.745
upperneck 23.2875 -1.95621 6.06942
head 12.5392 -1.001 3.75602
rclavicle 1.91082e-014 3.18055e-015
rhumerus -43.4866 -33.4554 0.941342
rradius 37.2032
rwrist 9.47332
rhand -32.7165 -2.57636
rfingers 7.12502
rthumb -5.94049 -32.4731
lclavicle 1.91082e-014 3.18055e-015
lhumerus -32.0819 28.3463 5.9921
lradius 34.7356
lwrist 5.94461
lhand -20.5116 20.2249
lfingers 7.12502
lthumb 5.84585 50.1243
rfemur -9.99061 -4.76778 15.2
rtibia 35.2786
rfoot -21.8767 -3.99518
rtoes 8.41615
lfemur -8.4274 -3.79011 -13.6927
ltibia 26.8605
lfoot -14.0337 0.574125
ltoes -23.3665
2331
root -3.7958 17.6094 1.25663 -0.365161 7.92808 1.38274
lowerback 5.84734 -0.273654 -2.00818
upperback 0.772683 -0.463376 1.02372
thorax -2.45772 -0.208058 2.21889
lowerneck -27.9695 -3.40027 -10.8407
upperneck 23.2554 -1.94505 6.08149
head 12.5246 -1.00269 3.77758
rclavicle -1.67228e-014 -2.38542e-015
rhumerus -42.3394 -33.8403 1.16648
rradius 37.4457
rwrist 9.90298
rhand -32.763 -2.73735
rfingers 7.12502
rthumb -5.98544 -32.6328
lclavicle -1.67228e-014 -2.38542e-015
lhumerus -31.0753 28.8108 5.63883
lradius 34.6757
lwrist 5.73618
lhand -20.37 20.0586
lfingers 7.12502
lthumb 5.98265 49.9541
rfemur -9.90946 -4.64613 15.0529
rtibia 35.2139
rfoot -21.7795 -4.07949
rtoes 8.09047
lfemur -8.26818 -3.68231 -13.8608
ltibia 26.8639
lfoot -14.1451 0.655593
ltoes -23.1112
2332
root -3.75801 17.6104 1.258 -0.404136 7.80907 1.52751
lowerback 5.5988 -0.284333 -2.13176
upperback 0.917358 -0.481607 0.965439
thorax -2.16819 -0.221557 2.22633
lowerneck -27.9769 -3.40999 -10.9498
upperneck 23.2617 -1.96465 6.26033
head 12.5337 -0.996394 3.86295
rclavicle 2.31833e-014 -3.18055e-015
rhumerus -41.1961 -34.2369 1.27435
rradius 37.7113
rwrist 10.5554
rhand -32.6601 -2.79742
rfingers 7.12502
rthumb -5.88608 -32.6957
lclavicle 2.31833e-014 -3.18055e-015
lhumerus -30.0742 29.2493 5.25157
lradius 34.6689
lwrist 5.56321
lhand -20.1771 19.9067
lfingers 7.12502
lthumb 6.16881 49.7969
rfemur -9.82766 -4.58174 14.7476
rtibia 35.1669
rfoot -21.7287 -4.03815
rtoes 8.19606
lfemur -8.11028 -3.59302 -14.1818
ltibia 26.844
lfoot -14.2173 0.781798
ltoes -23.1718
2333
root -3.71912 17.6095 1.25689 -0.388409 7.67865 1.63519
lowerback 5.45543 -0.296421 -2.16249
upperback 0.921402 -0.499063 0.8683
thorax -2.08354 -0.231501 2.14327
lowerneck -27.8552 -3.30146 -10.8049
upperneck 23.104 -1.90622 6.33032
head 12.4402 -0.945 3.87203
rclavicle 1.08338e-014 4.77083e-015
rhumerus -40.1087 -34.7525 1.46919
rradius 37.8174
rwrist 11.8429
rhand -32.3974 -2.6729
rfingers 7.12502
rthumb -5.63241 -32.578
lclavicle 1.08338e-014 4.77083e-015
lhumerus -29.0227 29.2476 4.96104
lradius 34.8197
lwrist 5.89496
lhand -20.4074 19.9104
lfingers 7.12502
lthumb 5.94652 49.8069
rfemur -9.8322 -4.43451 14.5057
rtibia 35.1369
rfoot -21.6702 -4.10134
rtoes 7.76013
lfemur -8.04499 -3.54925 -14.4555
ltibia 26.8091
lfoot -14.2885 0.952407
ltoes -23.1852
2334
root -3.68471 17.6072 1.2535 -0.43815 7.515 1.6519
lowerback 5.39543 -0.301737 -2.20583
upperback 0.917635 -0.50788 0.852029
thorax -2.05317 -0.23604 2.15094
lowerneck -27.6047 -3.31827 -10.8158
upperneck 23.2019 -1.96284 6.34471
head 12.4384 -0.974197 3.87048
rclavicle 5.04416e-015 7.95139e-016
rhumerus -38.7992 -35.1504 1.40589
rradius 37.999
rwrist 12.8189
rhand -31.8228 -2.05913
rfingers 7.12502
rthumb -5.07766 -31.9783
lclavicle 5.04416e-015 7.95139e-016
lhumerus -27.948 29.2543 4.77942
lradius 35.0151
lwrist 6.24439
lhand -20.6085 20.177
lfingers 7.12502
lthumb 5.75238 50.0789
rfemur -9.81451 -4.14262 14.4031
rtibia 35.135
rfoot -21.6797 -4.32878
rtoes 7.21927
lfemur -7.96492 -3.46034 -14.6015
ltibia 26.7796
lfoot -14.3203 1.04651
ltoes -23.1142
2335
root -3.6506 17.609 1.25112 -0.464038 7.31974 1.63187
lowerback 5.34953 -0.309846 -2.28245
upperback 0.869181 -0.521514 0.894448
thorax -2.07557 -0.241449 2.23859
lowerneck -27.6023 -3.20424 -10.7452
upperneck 23.3416 -1.8342 6.34037
head 12.4789 -0.914438 3.88507
rclavicle 1.97791e-014 -1.98785e-015
rhumerus -37.2114 -35.0056 0.85859
rradius 38.3796
rwrist 12.7607
rhand -31.5499 -1.90829
rfingers 7.12502
rthumb -4.81416 -31.8336
lclavicle 1.97791e-014 -1.98785e-015
lhumerus -26.891 29.491 4.64536
lradius 35.1166
lwrist 5.96369
lhand -20.5197 20.2797
lfingers 7.12502
lthumb 5.83807 50.1793
rfemur -9.8109 -3.9003 14.3328
rtibia 35.1257
rfoot -21.6821 -4.49587
rtoes 6.92367
lfemur -7.9045 -3.26917 -14.698
ltibia 26.776
lfoot -14.3538 1.06222
ltoes -23.0843
2336
root -3.61497 17.6093 1.24652 -0.469274 7.11878 1.73214
lowerback 5.31791 -0.292367 -2.43116
upperback 0.807287 -0.506632 0.890021
thorax -2.12116 -0.231699 2.31677
lowerneck -27.5523 -3.14705 -10.7063
upperneck 23.4859 -1.78242 6.34996
head 12.521 -0.890376 3.89613
rclavicle -8.34896e-015 5.96354e-015
rhumerus -35.687 -34.7938 0.328793
rradius 38.744
rwrist 12.4874
rhand -31.7322 -2.30679
rfingers 7.12502
rthumb -4.9902 -32.228
lclavicle -8.34896e-015 5.96354e-015
lhumerus -25.7256 29.7975 4.67269
lradius 35.1829
lwrist 5.51926
lhand -20.3785 20.0919
lfingers 7.12502
lthumb 5.97439 49.9876
rfemur -9.80483 -3.73124 14.1072
rtibia 35.0909
rfoot -21.6712 -4.51809
rtoes 7.03169
lfemur -7.84493 -3.1228 -14.9448
ltibia 26.8113
lfoot -14.3823 1.16018
ltoes -23.2687
2337
root -3.57899 17.6096 1.24435 -0.502568 6.90467 1.81709
lowerback 5.20692 -0.274786 -2.53554
upperback 0.803079 -0.486931 0.875211
thorax -2.0638 -0.22199 2.35783
lowerneck -27.4793 -3.1057 -10.7251
upperneck 23.6389 -1.73994 6.38827
head 12.5643 -0.872282 3.92655
rclavicle 1.42628e-014 -7.95139e-015
rhumerus -34.1308 -34.8707 -0.191183
rradius 38.9168
rwrist 12.7078
rhand -31.6627 -2.13579
rfingers 7.12502
rthumb -4.92309 -32.0586
lclavicle 1.42628e-014 -7.95139e-015
lhumerus -24.5225 29.8564 4.84934
lradius 35.3559
lwrist 5.44124
lhand -20.4654 19.9256
lfingers 7.12502
lthumb 5.89051 49.8237
rfemur -9.76698 -3.47543 13.9014
rtibia 35.0116
rfoot -21.5991 -4.59059
rtoes 7.33454
lfemur -7.75597 -3.01905 -15.1759
ltibia 26.8949
lfoot -14.4753 1.28117
ltoes -23.205
2338
root -3.54226 17.613 1.24371 -0.532408 6.72742 1.76208
lowerback 5.05928 -0.281555 -2.5039
upperback 0.773495 -0.490177 0.909172
thorax -2.01145 -0.224226 2.37404
lowerneck -27.4709 -3.05853 -10.7111
upperneck 23.8675 -1.68213 6.37694
head 12.6478 -0.852388 3.93772
rclavicle 5.93869e-015 7.95139e-015
rhumerus -32.5573 -35.0049 -0.799591
rradius 39.0897
rwrist 13.2305
rhand -31.4867 -2.25178
rfingers 7.12502
rthumb -4.75307 -32.1785
lclavicle 5.93869e-015 7.95139e-015
lhumerus -23.3389 29.7643 5.11763
lradius 35.5993
lwrist 5.47618
lhand -20.6892 19.9997
lfingers 7.12502
lthumb 5.67447 49.9037
rfemur -9.72461 -3.24124 13.849
rtibia 34.9253
rfoot -21.571 -4.66519
rtoes 7.67729
lfemur -7.70339 -2.9156 -15.2458
ltibia 26.9804
lfoot -14.5732 1.32238
ltoes -23.1415
2339
root -3.50729 17.6147 1.24151 -0.580129 6.52199 1.65868
lowerback 4.97122 -0.255306 -2.45217
upperback 0.699996 -0.449975 0.951817
thorax -2.04029 -0.203195 2.38589
lowerneck -27.2202 -3.01476 -10.6065
upperneck 23.9349 -1.6741 6.3026
head 12.6243 -0.853664 3.89262
rclavicle 4.64659e-015 -4.77083e-015
rhumerus -31.0496 -35.1165 -1.41743
rradius 39.218
rwrist 13.6789
rhand -31.5765 -2.6861
rfingers 7.12502
rthumb -4.83979 -32.6108
lclavicle 4.64659e-015 -4.77083e-015
lhumerus -22.0136 29.9405 5.48327
lradius 35.7149
lwrist 5.03016
lhand -20.7459 19.9616
lfingers 7.12502
lthumb 5.61967 49.8671
rfemur -9.69698 -3.05914 13.8438
rtibia 34.8449
rfoot -21.5226 -4.66644
rtoes 8.15884
lfemur -7.63702 -2.75418 -15.2511
ltibia 27.0361
lfoot -14.6768 1.32454
ltoes -23.1685
2340
root -3.47403 17.6139 1.23739 -0.609737 6.29131 1.70555
lowerback 4.822 -0.235608 -2.57208
upperback 0.690039 -0.42656 0.957759
thorax -1.96749 -0.191639 2.45674
lowerneck -26.9717 -2.95884 -10.5918
upperneck 23.8715 -1.64371 6.34984
head 12.5484 -0.833469 3.91049
rclavicle -6.83322e-015 4.37326e-015
rhumerus -29.4517 -35.1814 -2.22462
rradius 39.3767
rwrist 13.8308
rhand -31.5184 -2.83457
rfingers 7.12502
rthumb -4.78376 -32.7606
lclavicle -6.83322e-015 4.37326e-015
lhumerus -20.7278 30.3538 5.92427
lradius 35.8508
lwrist 4.49107
lhand -20.6736 19.8178
lfingers 7.12502
lthumb 5.68952 49.7214
rfemur -9.69903 -2.91087 13.6734
rtibia 34.7847
rfoot -21.4466 -4.65106
rtoes 8.2337
lfemur -7.57393 -2.66462 -15.4249
ltibia 27.0734
lfoot -14.7273 1.43501
ltoes -22.8728
